<svg width="28" height="28" viewBox="0 0 28 28" fill="none" xmlns="http://www.w3.org/2000/svg">
<path d="M6.70706 17.3185C6.70706 18.773 5.51886 19.9612 4.0645 19.9612C2.6102 19.9612 1.42206 18.773 1.42206 17.3185C1.42206 15.8643 2.61025 14.6762 4.0645 14.6762H6.70706V17.3185Z" fill="#E01E5A"/>
<path d="M8.03888 17.3185C8.03888 15.8643 9.22713 14.6762 10.6814 14.6762C12.1357 14.6762 13.3239 15.8644 13.3239 17.3185V23.9356C13.3239 25.3899 12.1357 26.5781 10.6814 26.5781C9.22707 26.5781 8.03888 25.3898 8.03888 23.9356V17.3185Z" fill="#E01E5A"/>
<path d="M10.6814 6.70704C9.22707 6.70704 8.03888 5.51879 8.03888 4.06448C8.03888 2.61018 9.22713 1.42198 10.6814 1.42198C12.1357 1.42198 13.3239 2.61023 13.3239 4.06448V6.70704H10.6814Z" fill="#36C5F0"/>
<path d="M10.6814 8.0389C12.1357 8.0389 13.3239 9.22709 13.3239 10.6815C13.3239 12.1358 12.1357 13.3238 10.6814 13.3238H4.06444C2.61014 13.3238 1.422 12.1357 1.422 10.6815C1.422 9.22704 2.61019 8.0389 4.06444 8.0389H10.6814Z" fill="#36C5F0"/>
<path d="M21.2931 10.6815C21.2931 9.22704 22.4812 8.0389 23.9356 8.0389C25.3899 8.0389 26.578 9.22709 26.578 10.6815C26.578 12.1358 25.3898 13.3238 23.9356 13.3238H21.2931V10.6815Z" fill="#2EB67D"/>
<path d="M19.9611 10.6815C19.9611 12.1358 18.7729 13.3238 17.3186 13.3238C15.8643 13.3238 14.6761 12.1357 14.6761 10.6815V4.06443C14.6761 2.61012 15.8643 1.42193 17.3186 1.42193C18.7729 1.42193 19.9611 2.61018 19.9611 4.06443V10.6815Z" fill="#2EB67D"/>
<path d="M17.3186 21.293C18.7729 21.293 19.9611 22.4812 19.9611 23.9356C19.9611 25.3898 18.7729 26.578 17.3186 26.578C15.8643 26.578 14.6761 25.3898 14.6761 23.9356V21.293H17.3186Z" fill="#ECB22E"/>
<path d="M17.3186 19.9612C15.8643 19.9612 14.6761 18.773 14.6761 17.3185C14.6761 15.8643 15.8643 14.6762 17.3186 14.6762H23.9356C25.3899 14.6762 26.578 15.8644 26.578 17.3185C26.578 18.773 25.3899 19.9612 23.9356 19.9612H17.3186Z" fill="#ECB22E"/>
</svg>
